<?xml version="1.0" encoding="utf-8"?>
<!-- Generator: Adobe Illustrator 26.0.1, SVG Export Plug-In . SVG Version: 6.00 Build 0)  -->
<svg version="1.1" id="Camada_1" xmlns="http://www.w3.org/2000/svg" xmlns:xlink="http://www.w3.org/1999/xlink" x="0px" y="0px"
	 viewBox="0 0 31 29.6" style="enable-background:new 0 0 31 29.6;" xml:space="preserve">
<style type="text/css">
	.st0{fill:#FFFFFF;}
</style>
<path class="st0" d="M17,1.1l2.6,8c0.2,0.6,0.8,1.1,1.5,1.1h8.4c1.5,0,2.1,1.9,0.9,2.8l-6.8,4.9C23,18.3,22.8,19,23,19.6l2.6,8
	c0.5,1.4-1.2,2.6-2.4,1.7l-6.8-4.9c-0.5-0.4-1.3-0.4-1.8,0l-6.8,4.9c-1.2,0.9-2.8-0.3-2.4-1.7l2.6-8c0.2-0.6,0-1.3-0.6-1.7l-6.8-4.9
	c-1.2-0.9-0.6-2.8,0.9-2.8H10c0.7,0,1.3-0.4,1.5-1.1l2.6-8C14.5-0.4,16.5-0.4,17,1.1z"/>
</svg>
