<?xml version="1.0" encoding="utf-8"?>
<!-- Generator: Adobe Illustrator 26.0.1, SVG Export Plug-In . SVG Version: 6.00 Build 0)  -->
<svg version="1.1" id="Camada_1" xmlns="http://www.w3.org/2000/svg" xmlns:xlink="http://www.w3.org/1999/xlink" x="0px" y="0px"
	 viewBox="0 0 40.68 31.51" style="enable-background:new 0 0 40.68 31.51;" xml:space="preserve">
<style type="text/css">
	.st0{fill:#BB1C35;}
	.st1{fill:url(#SVGID_1_);}
	.st2{clip-path:url(#SVGID_00000129167641497956417930000005940687754920832143_);}
	
		.st3{clip-path:url(#SVGID_00000129167641497956417930000005940687754920832143_);fill:url(#SVGID_00000078756189815981571580000014920203103766616449_);}
	
		.st4{clip-path:url(#SVGID_00000129167641497956417930000005940687754920832143_);fill:url(#SVGID_00000002354403326594759150000017269334989772482200_);}
	.st5{clip-path:url(#SVGID_00000051349174779820319830000010498697774393503644_);}
	
		.st6{clip-path:url(#SVGID_00000051349174779820319830000010498697774393503644_);fill:url(#SVGID_00000116236460714847946340000014994860095156439175_);}
	
		.st7{clip-path:url(#SVGID_00000051349174779820319830000010498697774393503644_);fill:url(#SVGID_00000102526711590247429930000002906773301407423167_);}
	
		.st8{clip-path:url(#BG_00000020387294506992862030000002265622461762981537_);fill:url(#SVGID_00000002363642767849953140000013869635918870418563_);}
	.st9{fill:none;}
	.st10{fill:#CDCDD2;}
	.st11{fill:#DEDEE2;}
	
		.st12{clip-path:url(#BG_00000152265549550020524930000007669826782516836249_);fill:url(#BG_00000148655014863100419710000007389046008596746149_);}
	.st13{clip-path:url(#BG_00000181772171661284009450000008585321514744497823_);fill:none;}
	.st14{fill:#FFFFFF;}
	
		.st15{clip-path:url(#BG_00000028319608843546533800000004823874407826054060_);fill:url(#SVGID_00000016772816435058293030000017718039435152853128_);}
	.st16{fill:#F4F4F6;}
	.st17{fill:none;stroke:#FFFFFF;stroke-width:0.5;stroke-miterlimit:10;}
	.st18{fill:none;stroke:#000000;stroke-miterlimit:10;}
	.st19{fill:none;stroke:#FFFFFF;stroke-miterlimit:10;}
	.st20{fill:#222546;}
	.st21{fill:#AC8566;}
	.st22{fill-rule:evenodd;clip-rule:evenodd;fill:#FFFFFF;}
	.st23{clip-path:url(#SVGID_00000138539412338094331690000005379540009120857226_);}
	.st24{clip-path:url(#SVGID_00000138539412338094331690000005379540009120857226_);fill:#BB1C35;}
</style>
<g>
	<circle class="st0" cx="15.76" cy="15.76" r="15.76"/>
	<path d="M10.66,12.28c1.16-1.24,2.27-2.53,3.5-3.69c0.67-0.63,1.68-0.4,2.45,0.36c1.64,1.63,3.27,3.27,4.9,4.91
		c0.2,0.2,0.37,0.44,0.58,0.7c0.27-0.25,0.44-0.41,0.61-0.58c3.93-3.93,7.85-7.87,11.78-11.8c1.26-1.26,2.15-1.27,3.4-0.02
		c0.72,0.72,1.46,1.44,2.17,2.17c0.84,0.87,0.86,1.92,0.01,2.77c-5.49,5.51-11,11.01-16.5,16.5c-0.82,0.81-1.92,0.84-2.73,0.03
		c-3.2-3.18-6.39-6.37-9.57-9.57c-0.24-0.24-0.39-0.58-0.58-0.87C10.66,12.91,10.66,12.59,10.66,12.28z"/>
</g>
</svg>
