<?xml version="1.0" encoding="utf-8"?>
<!-- Generator: Adobe Illustrator 26.0.2, SVG Export Plug-In . SVG Version: 6.00 Build 0)  -->
<svg version="1.1" id="Camada_1" xmlns="http://www.w3.org/2000/svg" xmlns:xlink="http://www.w3.org/1999/xlink" x="0px" y="0px"
	 viewBox="0 0 17.4 17.4" style="enable-background:new 0 0 17.4 17.4;" xml:space="preserve">
<style type="text/css">
	.st0{fill:#BB1C35;}
</style>
<g>
	<g>
		<path class="st0" d="M8.4,17.4H7.8c-0.4,0-0.8-0.3-0.8-0.8l-0.2-1.8c-0.4-0.1-0.7-0.3-1.1-0.4l-1.4,1.1c-0.4,0.3-0.8,0.3-1.2-0.1
			l-1.2-1.2c-0.3-0.3-0.4-0.8,0-1.1L3,11.7c-0.2-0.3-0.3-0.7-0.4-1.1l-1.8-0.2C0.3,10.4,0,10,0,9.6V7.8C0,7.4,0.3,7,0.8,7l1.8-0.2
			C2.7,6.4,2.9,6.1,3,5.7L1.9,4.3c-0.3-0.4-0.3-0.8,0-1.2l1.2-1.2C3.5,1.6,4,1.6,4.3,1.9L5.7,3c0.3-0.2,0.7-0.3,1.1-0.4L7,0.8
			C7,0.3,7.3,0,7.8,0h1.7c0.4,0,0.8,0.3,0.8,0.8c0.1,0.6,0.1,1.2,0.2,1.8C11,2.7,11.3,2.9,11.7,3l1.4-1.1c0.4-0.3,0.8-0.3,1.2,0.1
			l1.2,1.2c0.3,0.3,0.4,0.8,0.1,1.2l-1.2,1.4c0.2,0.3,0.3,0.7,0.4,1.1L16.6,7c0.5,0,0.8,0.4,0.8,0.8v1.7c0,0.5-0.3,0.8-0.8,0.9
			l-1.8,0.2c-0.1,0.4-0.3,0.7-0.4,1.1l1.2,1.4c0.3,0.4,0.3,0.8-0.1,1.2l-1.2,1.2c-0.3,0.3-0.8,0.4-1.2,0.1l-1.4-1.2
			c-0.3,0.2-0.7,0.3-1.1,0.4l-0.2,1.8c-0.1,0.5-0.4,0.8-0.9,0.8H9H8.7l0,0L8.4,17.4L8.4,17.4z M5.7,13.6c0.1,0,0.2,0,0.3,0.1
			c0.4,0.2,0.8,0.4,1.2,0.5c0.1,0,0.3,0.1,0.4,0.5l0.2,2c0,0.1,0,0.1,0.1,0.1h0.9h0.9c0.1,0,0.1,0,0.1,0s0,0,0-0.1l0.2-2
			c0-0.2,0.1-0.4,0.4-0.4c0.4-0.1,0.8-0.3,1.2-0.5c0.2-0.1,0.4-0.1,0.6,0.1l1.5,1.2c0.1,0.1,0.1,0.1,0.1,0l1.2-1.2
			c0.1-0.1,0.1-0.1,0.1-0.1s0,0-0.1-0.1L13.7,12c-0.1-0.2-0.2-0.4-0.1-0.6c0.2-0.4,0.4-0.8,0.5-1.2c0.1-0.2,0.2-0.4,0.4-0.4l2-0.2
			c0.1,0,0.1,0,0.1-0.1V7.8c0-0.1,0-0.1-0.1-0.1l-2-0.2c-0.2,0-0.4-0.2-0.5-0.4C14,6.7,13.8,6.3,13.6,6c-0.1-0.1-0.1-0.3,0.1-0.6
			l1.2-1.5c0.1-0.1,0.1-0.1,0-0.2l-1.2-1.2c-0.1-0.1-0.1-0.1-0.1-0.1s0,0-0.1,0.1L12,3.7c-0.2,0.2-0.5,0.1-0.6,0.1
			c-0.4-0.2-0.8-0.4-1.2-0.5C10,3.2,9.9,3.1,9.9,2.8c-0.1-0.7-0.1-1.3-0.2-2c0-0.1,0-0.1-0.1-0.1H7.8c-0.1,0-0.1,0-0.1,0
			c0,0,0,0,0,0.1L7.5,2.8c0,0.3-0.3,0.4-0.4,0.4C6.8,3.4,6.3,3.5,6,3.8c-0.2,0.1-0.4,0.1-0.6,0L3.8,2.5c-0.1-0.1-0.1-0.1-0.2,0
			L2.5,3.7c-0.1,0.1-0.1,0.1,0,0.2l1.3,1.5c0.1,0.2,0.2,0.4,0,0.6C3.5,6.4,3.4,6.8,3.3,7.2c0,0.1-0.2,0.3-0.5,0.4l-2,0.2
			c-0.1,0-0.1,0-0.1,0.1v1.7c0,0.1,0,0.1,0.1,0.1l1.9,0.2c0.2,0,0.4,0.2,0.5,0.4c0.1,0.4,0.3,0.8,0.5,1.2c0.1,0.2,0.1,0.4,0,0.6
			l-1.2,1.5c-0.1,0.1-0.1,0.1,0,0.1l1.2,1.2C3.7,15,3.8,15,3.8,15s0,0,0.1-0.1l1.5-1.2C5.5,13.6,5.6,13.6,5.7,13.6z M5.6,14.3
			L5.6,14.3L5.6,14.3z M5.9,14.2L5.9,14.2L5.9,14.2z M14.3,11.8L14.3,11.8L14.3,11.8z M14.2,11.5L14.2,11.5L14.2,11.5z M14.6,10.6
			L14.6,10.6L14.6,10.6z M14.8,10.4L14.8,10.4L14.8,10.4z M3.1,5.8L3.1,5.8L3.1,5.8z M5.9,3.1L5.9,3.1L5.9,3.1z M7,2.5L7,2.5L7,2.5z
			 M8.7,11.5C8.7,11.5,8.7,11.5,8.7,11.5c-0.8,0-1.5-0.3-2-0.8c-0.5-0.5-0.8-1.2-0.8-2c0-0.8,0.3-1.5,0.8-2c0.5-0.5,1.3-0.8,2-0.8
			c0.8,0,1.4,0.3,2,0.8c0.5,0.5,0.8,1.2,0.8,2l0,0c0,0.8-0.3,1.5-0.8,2S9.4,11.5,8.7,11.5z M8.7,6.6c-0.6,0-1.1,0.2-1.5,0.6
			C6.8,7.6,6.6,8.1,6.6,8.7c0,0.5,0.2,1.1,0.6,1.5s0.9,0.6,1.5,0.6c0,0,0,0,0,0c0.6,0,1.1-0.2,1.5-0.6c0.4-0.4,0.6-0.9,0.6-1.5l0,0
			c0-0.5-0.2-1.1-0.6-1.5S9.3,6.6,8.7,6.6C8.7,6.6,8.7,6.6,8.7,6.6z"/>
	</g>
</g>
</svg>
