<?xml version="1.0" encoding="utf-8"?>
<!-- Generator: Adobe Illustrator 26.0.2, SVG Export Plug-In . SVG Version: 6.00 Build 0)  -->
<svg version="1.1" id="Camada_1" xmlns="http://www.w3.org/2000/svg" xmlns:xlink="http://www.w3.org/1999/xlink" x="0px" y="0px"
	 viewBox="0 0 42.2 31.2" style="enable-background:new 0 0 42.2 31.2;" xml:space="preserve">
<style type="text/css">
	.st0{fill:#BB1C35;}
	.st1{fill:#FFFFFF;}
</style>
<g>
	<g>
		<path class="st0" d="M6.7,24.5c0-3,0-5.9,0-8.9c1.1,0,2.3,0,3.4,0c0.7,0,1.1-0.2,1.5-0.8c1.1-1.8,2.3-3.6,3.5-5.3
			c0.2-0.3,0.7-0.6,1-0.6c6.2,0,12.4,0,18.6,0c0.2,0,0.5,0.1,0.8,0.1c0,0.4,0,0.8,0,1.2c0,4.4,0,8.9,0,13.4c0,0.5-0.2,1.1-0.5,1.6
			c-1.1,1.8-2.3,3.6-3.5,5.3c-0.2,0.3-0.8,0.6-1.2,0.6c-4.6,0-9.2,0-13.8,0c-0.8,0-1.2-0.3-1.6-0.9c-1.1-1.7-2.2-3.3-3.3-5
			c-0.4-0.6-0.8-0.9-1.6-0.9C9,24.5,7.9,24.5,6.7,24.5z M26.4,12.8c-0.1,0-0.1-0.1-0.2-0.1c-2.2,2.4-4.4,4.7-6.7,7.1
			c0,0.1,0.1,0.2,0.1,0.3c0.9,0,1.7,0,2.7,0c-0.8,1.8-1.5,3.5-1.9,4.6c2.1-2,4.6-4.4,7.1-6.9c-1,0-1.9,0-3,0
			C25.3,16,25.8,14.4,26.4,12.8z"/>
		<path class="st1" d="M17.8,0c4.4,0,8.8,0,13.2,0c0,1.5,0,2.9,0,4.4c-1.4,0-2.8,0-4.3,0c0,0.8-0.1,1.5-0.1,2.2c-1.5,0-2.9,0-4.4,0
			c0-0.7,0-1.4,0-2.2c-1.5,0-3,0-4.4,0C17.8,2.9,17.8,1.5,17.8,0z"/>
		<path class="st1" d="M42.2,24.4c-1.5,0-2.9,0-4.3,0c0-5.2,0-10.3,0-15.5c1.4,0,2.8,0,4.3,0C42.2,14.1,42.2,19.2,42.2,24.4z"/>
		<path class="st1" d="M4.3,26.6c-1.5,0-2.9,0-4.3,0c0-4.4,0-8.8,0-13.2c1.4,0,2.8,0,4.3,0C4.3,17.8,4.3,22.2,4.3,26.6z"/>
	</g>
</g>
</svg>
