<?xml version="1.0" encoding="utf-8"?>
<!-- Generator: Adobe Illustrator 26.0.2, SVG Export Plug-In . SVG Version: 6.00 Build 0)  -->
<svg version="1.1" id="Camada_1" xmlns="http://www.w3.org/2000/svg" xmlns:xlink="http://www.w3.org/1999/xlink" x="0px" y="0px"
	 viewBox="0 0 17.4 17.4" style="enable-background:new 0 0 17.4 17.4;" xml:space="preserve">
<style type="text/css">
	.st0{fill:#BB1C35;}
</style>
<g>
	<g>
		<path class="st0" d="M0.9,15L0.9,15c-0.4,0-0.7-0.3-0.8-0.7c0-0.1,0-0.3,0-0.4l0-0.3v-0.7l0-0.5c0.2-1.2,0.6-2.4,1.4-3.4
			c0.5-0.7,1.2-1.4,2.1-2c0.9-0.6,1.8-1.1,3.1-1.6C7.3,5.2,8,5,8.6,4.8V3.2c0-0.4,0.2-0.6,0.5-0.8c0.2-0.1,0.4-0.1,0.7,0.1l7.1,4.1
			c0.4,0.2,0.6,0.7,0.4,1.1C17.2,7.9,17.1,8,16.9,8l-7.1,4c-0.3,0.2-0.7,0.2-1-0.1c-0.2-0.2-0.3-0.4-0.3-0.6V9.9
			c-0.7,0-1.3,0.1-1.9,0.1c-1,0.2-1.9,0.4-2.7,0.9c-1.1,0.6-1.8,1.5-2.1,2.7c-0.1,0.2-0.1,0.4-0.1,0.6l0,0.1C1.6,14.8,1.3,15,0.9,15
			z M0.7,13l0,0.9c0,0.1,0,0.3,0,0.4c0,0.1,0.1,0.2,0.2,0.2l0,0c0.1,0,0.2-0.1,0.2-0.2l0-0.1c0-0.2,0.1-0.4,0.2-0.6
			c0.4-1.3,1.2-2.4,2.4-3.1c0.8-0.5,1.8-0.8,2.9-1c0.6-0.1,1.3-0.1,2.1-0.1h0.1h0.3l0,0.4v1.6c0,0.1,0,0.1,0.1,0.2s0.1,0.1,0.3,0
			l7.1-4c0.1,0,0.1-0.1,0.1-0.1c0.1-0.1,0-0.2-0.1-0.3L9.5,3C9.5,3,9.4,3,9.4,3C9.3,3,9.2,3.1,9.2,3.2V5c0,0.2-0.1,0.4-0.3,0.4
			C8.2,5.5,7.6,5.8,6.9,6C5.7,6.5,4.8,7,4,7.6C3.1,8.2,2.5,8.8,2,9.5c-0.7,0.9-1.1,2-1.2,3.1L0.7,13z"/>
	</g>
</g>
</svg>
