<?xml version="1.0" encoding="utf-8"?>
<!-- Generator: Adobe Illustrator 26.0.2, SVG Export Plug-In . SVG Version: 6.00 Build 0)  -->
<svg version="1.1" id="Camada_1" xmlns="http://www.w3.org/2000/svg" xmlns:xlink="http://www.w3.org/1999/xlink" x="0px" y="0px"
	 viewBox="0 0 17.4 17.4" style="enable-background:new 0 0 17.4 17.4;" xml:space="preserve">
<style type="text/css">
	.st0{fill:#BB1C35;}
</style>
<g>
	<g>
		<path class="st0" d="M7.7,1.7c-0.1,0-0.2-0.1-0.2-0.1C7.1,1.4,6.9,1.1,7,0.7C7,0.4,7.3,0,7.7,0c0.7,0,1.4,0,2,0
			c0.4,0,0.7,0.3,0.7,0.7c0,0.4-0.2,0.7-0.5,0.8C9.7,1.6,9.6,1.7,9.6,1.9c0,0.3,0,0.5,0,0.8c0,0.1,0.1,0.2,0.1,0.2
			c0.8,0.1,1.6,0.4,2.4,0.8c0,0,0,0,0.1,0c0.3-0.4,0.6-0.8,0.9-1.2c0.5,0.4,1,0.7,1.6,1.1c-0.3,0.5-0.6,0.9-0.9,1.3
			c0.4,0.5,0.8,0.9,1.1,1.4c2.7,4.4,0.1,10.2-5,11c-4.1,0.6-7.9-2.2-8.4-6.3c-0.4-3.9,2.2-7.4,6-8c0.2,0,0.3-0.1,0.3-0.3
			C7.7,2.3,7.7,2,7.7,1.7z M8.7,16.2c3.4,0,6.1-2.7,6.1-6.1c0-3.4-2.7-6.1-6.1-6.1c-3.4,0-6.1,2.7-6.1,6.1
			C2.6,13.5,5.3,16.2,8.7,16.2z"/>
	</g>
	<g>
		<path class="st0" d="M11.7,6.8c0,0.1-0.1,0.1-0.1,0.2C11,7.9,10.4,8.7,9.8,9.6C9.7,9.7,9.6,9.9,9.6,10c0,0.6-0.4,1-0.9,1
			c-0.5,0-0.9-0.4-1-0.9c0-0.5,0.4-0.9,1-1C8.8,9.2,9,9.1,9.1,9c0.8-0.7,1.6-1.4,2.4-2.1C11.5,6.9,11.6,6.8,11.7,6.8
			C11.7,6.8,11.7,6.8,11.7,6.8z"/>
	</g>
</g>
</svg>
