<?xml version="1.0" encoding="utf-8"?>
<!-- Generator: Adobe Illustrator 26.0.1, SVG Export Plug-In . SVG Version: 6.00 Build 0)  -->
<svg version="1.1" id="Camada_1" xmlns="http://www.w3.org/2000/svg" xmlns:xlink="http://www.w3.org/1999/xlink" x="0px" y="0px"
	 viewBox="0 0 16.4 16.5" style="enable-background:new 0 0 16.4 16.5;" xml:space="preserve">
<style type="text/css">
	.st0{fill:#BB1C35;}
</style>
<path class="st0" d="M0,16.5l1.2-4.2C0.4,11,0.1,9.6,0.1,8.2C0.1,3.7,3.7,0,8.2,0c2.2,0,4.2,0.8,5.8,2.4s2.4,3.6,2.4,5.8
	c0,4.5-3.7,8.2-8.2,8.2c-1.4,0-2.7-0.3-3.9-1L0,16.5z M4.5,13.9C5.7,14.5,6.8,15,8.2,15c3.7,0,6.8-3,6.8-6.8c0-3.7-3-6.8-6.8-6.8
	c-3.7,0-6.8,3-6.8,6.8c0,1.5,0.4,2.7,1.2,3.9L2,14.5L4.5,13.9z M12.3,10.1C12.3,10,12.2,10,12,9.9c-0.2-0.1-1.2-0.6-1.4-0.7
	s-0.3-0.1-0.5,0.1C10,9.5,9.6,10,9.5,10.1c-0.1,0.1-0.2,0.2-0.4,0.1c-0.2-0.1-0.9-0.3-1.6-1c-0.6-0.5-1-1.2-1.1-1.4
	c-0.1-0.2,0-0.3,0.1-0.4C6.4,7.2,6.5,7.1,6.6,7c0.1-0.1,0.1-0.2,0.2-0.3s0-0.3,0-0.4C6.8,6.2,6.4,5.2,6.2,4.8C6,4.4,5.9,4.4,5.7,4.4
	l-0.4,0C5.2,4.4,5,4.4,4.8,4.6S4.1,5.3,4.1,6.4s0.7,2,0.8,2.1c0.1,0.1,1.4,2.2,3.5,3.1c0.5,0.2,0.9,0.3,1.2,0.4
	c0.5,0.2,0.9,0.1,1.3,0.1c0.4-0.1,1.2-0.5,1.4-1C12.4,10.6,12.4,10.2,12.3,10.1z"/>
</svg>
