<?xml version="1.0" encoding="utf-8"?>
<!-- Generator: Adobe Illustrator 26.0.1, SVG Export Plug-In . SVG Version: 6.00 Build 0)  -->
<svg version="1.1" id="Camada_1" xmlns="http://www.w3.org/2000/svg" xmlns:xlink="http://www.w3.org/1999/xlink" x="0px" y="0px"
	 viewBox="0 0 1823.8 862.8" style="enable-background:new 0 0 1823.8 862.8;" xml:space="preserve">
<style type="text/css">
	.st0{fill:#B02735;}
</style>
<g>
	<g>
		<path class="st0" d="M1141.9,351.4c15.7-25.7,35.6-48.4,53.7-72.4c61.4-81.3,144.5-128.7,239.6-160.4
			C1557.3,77.8,1679.9,38.8,1803.8,4c6.2-1.7,14.1-7.5,18.9-0.9c3.7,5.1-2.5,11.6-5.6,16.7c-32.2,53.8-64.2,108-114,147.9
			c-33.9,27.2-75.9,38.5-116,52.7c-142.1,50.3-287.3,90.8-432.5,131C1151,352.5,1147.2,355.5,1141.9,351.4z"/>
		<path class="st0" d="M1027.4,623.2c15.4-27.5,35.1-49,53.6-71.5c42-51.3,97.3-81.8,158.9-103.1c99.6-34.4,200.1-65.8,301.4-94.5
			c3.2-0.9,6.6-1.1,13.3-2.2c-15,34.5-35.9,61.9-56,89.9c-24.2,33.7-56.6,55-95.3,69.2c-119.7,43.9-242.2,78.5-364.9,112.2
			C1035.9,623.8,1033.1,623.2,1027.4,623.2z"/>
		<path class="st0" d="M936.4,861.5c42.3-66.4,94.1-109.6,164.9-131.5c67-20.7,133.8-42.1,201-62.1c1.8-0.5,3.9-0.1,9.5-0.1
			c-25.1,41.1-45,83.5-89.9,103.3c-70,31-144.1,49.9-217.2,71.5C983.8,849,962.6,854.4,936.4,861.5z"/>
	</g>
	<g>
		<path class="st0" d="M682.9,351.9c-15.7-25.7-35.6-48.5-53.8-72.5C567.7,198,484.4,150.5,389.2,118.7
			C266.9,77.9,144.2,38.9,20.1,4C13.9,2.2,6-3.5,1.1,3.1c-3.7,5.1,2.5,11.6,5.6,16.7C39,73.7,71.1,128,120.9,168
			c33.9,27.2,76,38.6,116.1,52.8c142.3,50.4,287.7,90.9,433.1,131.2C673.8,353,677.6,356,682.9,351.9z"/>
		<path class="st0" d="M797.5,624.1c-15.4-27.5-35.2-49.1-53.7-71.6c-42.1-51.4-97.4-81.9-159.1-103.3
			c-99.7-34.5-200.3-65.9-301.8-94.7c-3.2-0.9-6.6-1.1-13.3-2.2c15,34.5,35.9,62,56.1,90.1c24.2,33.7,56.7,55.1,95.4,69.3
			C541,555.6,663.6,590.2,786.6,624C789,624.7,791.8,624.1,797.5,624.1z"/>
		<path class="st0" d="M888.7,862.8c-42.3-66.5-94.2-109.8-165.1-131.7C656.5,710.4,589.6,689,522.3,669c-1.8-0.5-3.9-0.1-9.5-0.1
			c25.1,41.2,45.1,83.6,90,103.5c70.1,31,144.3,50,217.6,71.6C841.3,850.2,862.4,855.6,888.7,862.8z"/>
	</g>
</g>
</svg>
