<?xml version="1.0" encoding="utf-8"?>
<!-- Generator: Adobe Illustrator 26.0.2, SVG Export Plug-In . SVG Version: 6.00 Build 0)  -->
<svg version="1.1" id="Camada_1" xmlns="http://www.w3.org/2000/svg" xmlns:xlink="http://www.w3.org/1999/xlink" x="0px" y="0px"
	 viewBox="0 0 17.4 17.4" style="enable-background:new 0 0 17.4 17.4;" xml:space="preserve">
<style type="text/css">
	.st0{fill:#BB1C35;}
</style>
<g>
	<g>
		<path class="st0" d="M10.3,17.4L10,17.3l-0.5-0.1c0-0.1,0-0.1,0-0.2c0,0,0,0,0-0.1c-0.4-0.3-0.8-0.6-1.2-0.9l-0.7-0.5L8.1,15
			c0.2-0.3,0.5-0.5,0.8-0.8L9,14.1c0,0,0.1-0.1,0.1-0.1c0-0.1-0.1-0.2-0.2-0.3l-0.1-0.3l0-0.1c0-0.1,0-0.2,0-0.3c0,0-0.1,0-0.1,0
			l-0.4,0.1l0-0.4c0-0.1,0-0.3-0.1-0.4c0-0.1-0.2-0.1-0.6-0.1l-0.4,0.1l0-0.4c0-0.2,0-0.3-0.1-0.5c-0.1-0.4-0.1-0.8,0.1-1.2
			c0,0-0.1-0.1-0.1-0.1C7.1,10,7,9.9,6.9,9.8L6.9,9.7c-0.6,0-0.8-0.2-0.8-0.9c0,0,0-0.1,0-0.1c0-0.1,0-0.2-0.2-0.2
			C5.2,8.4,4.7,8.1,4.3,7.9C4.1,7.7,4,7.4,3.9,7.1c0,0,0-0.1,0-0.1c0,0-0.1,0-0.1,0C3.3,7.4,2.7,7.5,2,7.4l-0.3,0l0-0.4
			c-0.1,0-0.3,0-0.4,0C1.1,6.9,0.9,6.7,0.7,6.5C0.7,6.4,0.6,6.2,0.5,6.1L0.3,5.8l0-0.3l0.1-0.2C0.5,5,0.6,4.8,0.7,4.6
			c0.1-0.1,0.2-0.3,0.5-0.4C1.4,4.1,1.6,4.1,1.9,4L2,4l0-0.1c0-0.3,0.1-0.5,0.1-0.8c0,0,0-0.1-0.1-0.1C1.9,2.7,1.8,2.5,1.9,2.3
			C1.9,2.2,2,2.1,2,2.1L1.6,1.6l1.9-0.2l0.1,0.2c0,0.1,0.1,0.2,0.2,0.3c0,0,0.2,0,0.7-0.3L3.8,0.3l1.2,0.4l0.2-0.1
			c0.1,0,0.2-0.1,0.3-0.1c0.2-0.1,0.2-0.1,0.2-0.1L5.9,0h0.7l0.1,0.2C6.7,0.6,6.8,1,6.7,1.4c0,0.1,0,0.2,0,0.2c0,0,0.1,0.1,0.3,0
			c0.2-0.1,0.4-0.1,0.6-0.1c0.1,0,0.1,0,0.2,0C7.8,1.3,7.9,1.2,8,1.2c0.2-0.1,0.5,0,0.6,0.1c0.3,0.1,0.5,0,0.6-0.2
			c0.1-0.1,0.2-0.2,0.3-0.4L10,0.1l0.9,1.9l-0.4,0.4l0.2-0.1L10.5,3c0.1,0,0.1,0,0.2,0c0.1-0.1,0.2-0.1,0.3-0.2
			c0.2-0.1,0.4-0.3,0.7-0.2c0.3,0.1,0.6,0.2,0.9,0.3l0.1,0.1C12.9,3,13,3.2,13,3.3c0.2,0,0.4,0,0.6,0c0.1,0,0.1,0,0.2,0
			c0.9,0,1.5,0.3,2.1,0.9c0.1,0.1,0.1,0.1,0.3,0.1c0.7,0,0.8,0.6,0.9,0.8c0,0,0,0.1,0,0.1l0,0.2V6l-0.2,0.3
			c-0.1,0.1-0.2,0.3-0.3,0.4c-0.3,0.4-0.5,0.7-0.8,1.1C15.8,8,15.7,8,15.6,8.1l-0.1,0.1c0,0,0,0.1,0,0.1c0.1,0.7,0,1.2-0.1,1.8
			c0,0.2-0.1,0.4-0.1,0.6c0,0.1-0.1,0.2-0.1,0.3c-0.1,0.1-0.1,0.2-0.1,0.3c-0.1,0.2-0.2,0.4-0.3,0.7c-0.2,0.3-0.5,0.6-0.8,0.6
			c0,0,0,0,0,0c-0.4,0-0.7,0.1-1,0.3c-0.2,0.2-0.5,0.3-0.7,0.5c-0.1,0.1-0.2,0.1-0.3,0.2c-0.1,0.1-0.1,0.1-0.1,0.4
			c0,0.4,0,0.8-0.1,1.1c-0.1,0.2-0.2,0.4-0.4,0.6c-0.1,0.1-0.1,0.1-0.1,0.2l-0.1,0.2L10.8,16L10.3,17.4z M8.6,15.4l0.1,0.1
			c0.4,0.3,0.8,0.6,1.2,0.9l0.4-1.2l0.4,0.1c0,0,0,0,0,0c0.1-0.2,0.2-0.3,0.3-0.5c0.1-0.2,0.1-0.5,0.1-0.8c0-0.4-0.1-0.8,0.4-1.1
			c0.1-0.1,0.2-0.1,0.3-0.2c0.2-0.1,0.4-0.2,0.6-0.4c0.5-0.4,0.9-0.5,1.5-0.5c0,0,0.1-0.1,0.2-0.3c0.1-0.2,0.2-0.4,0.2-0.6
			c0-0.1,0.1-0.2,0.1-0.3c0,0,0-0.1,0.1-0.1c0-0.2,0.1-0.4,0.1-0.6c0.1-0.5,0.2-1,0.1-1.6c0-0.2,0-0.4,0-0.5c0,0,0-0.1,0-0.1L15,7.2
			l0.3,0.3c0,0,0,0,0.1-0.1c0.3-0.4,0.5-0.7,0.8-1.1c0.1-0.1,0.2-0.3,0.3-0.4l0.1-0.1V5.4c-0.1-0.1-0.1-0.2-0.1-0.2
			C16.3,5,16.3,5,16.1,5c-0.2,0-0.6-0.1-0.8-0.3C15,4.2,14.5,4,13.8,4c-0.1,0-0.2,0-0.3,0c-0.3,0-0.4,0-0.6,0.1l-0.6,0.7v-1
			c0-0.1,0-0.1,0-0.2l0,0c-0.3-0.1-0.5-0.2-0.8-0.3c0,0-0.1,0.1-0.1,0.1c-0.2,0.1-0.3,0.2-0.4,0.3l-0.7,0.5l0-0.4
			c-0.1,0-0.4,0-0.5-0.2c0,0,0,0,0,0L8.4,3.9l1.7-2L9.8,1.4C9.5,1.9,9,2.1,8.5,1.9c-0.1,0-0.1,0-0.1-0.1C8.2,2,8,2.1,8,2.1
			c-0.1,0-0.2,0-0.3,0c-0.2,0-0.3,0-0.4,0.1C6.9,2.3,6.5,2.3,6.3,2.1C6.1,1.9,6,1.6,6,1.2c0-0.1,0-0.2,0-0.3C6,1,5.9,1,5.8,1
			c-0.1,0-0.1,0-0.2,0.1L5.2,1.3l-0.1,0l0.2,0.4L5.1,1.9c-0.6,0.5-1,0.8-1.4,0.7c-0.2,0-0.4-0.2-0.6-0.4l-0.2,0l0.2,0.2L2.7,2.5
			c0,0,0,0-0.1,0c0,0,0,0,0,0.1c0.1,0.1,0.2,0.3,0.1,0.6c0,0.3-0.1,0.6-0.1,0.9L2.5,4.5L2,4.6C1.8,4.7,1.6,4.7,1.4,4.8
			c0,0-0.1,0.1-0.1,0.1C1.2,5.1,1.1,5.3,1,5.5L1,5.6L1,5.7C1.1,5.9,1.2,6,1.3,6.2c0,0.1,0.1,0.1,0.2,0.1c0.1,0,0.3,0,0.4-0.1L2.3,6
			l0.1,0.8c0.4,0,0.7-0.1,1-0.3c0.2-0.1,0.4-0.2,0.5-0.2l0.3-0.1l0.2,0.2c0.1,0.1,0.1,0.3,0.1,0.4c0.1,0.2,0.1,0.4,0.2,0.5
			C5,7.6,5.5,7.7,6,7.9c0.3,0.1,0.6,0.2,0.7,0.7c0,0.1,0,0.2,0,0.2c0,0.1,0,0.2,0,0.3l0.5,0.1l0.2,0.3c0.1,0.1,0.2,0.3,0.3,0.4
			C7.8,10,8,10.3,7.9,10.5c-0.1,0.3-0.1,0.6,0,0.9c0,0.1,0,0.1,0,0.2c0.3,0,0.6,0.1,0.8,0.3C8.8,12,8.9,12.2,9,12.4
			c0.1,0,0.3,0,0.4,0.1c0.2,0.2,0.2,0.4,0.2,0.8l0,0.1c0.1,0.1,0.2,0.3,0.2,0.4c0.1,0.4-0.1,0.7-0.3,0.8C9.1,14.9,8.9,15.2,8.6,15.4
			L8.6,15.4z M12.5,3.5L12.5,3.5L12.5,3.5z"/>
	</g>
</g>
</svg>
