<?xml version="1.0" encoding="utf-8"?>
<!-- Generator: Adobe Illustrator 26.1.0, SVG Export Plug-In . SVG Version: 6.00 Build 0)  -->
<svg version="1.1" id="Camada_1" xmlns="http://www.w3.org/2000/svg" xmlns:xlink="http://www.w3.org/1999/xlink" x="0px" y="0px"
	 viewBox="0 0 151.1 63.7" style="enable-background:new 0 0 151.1 63.7;" xml:space="preserve">
<style type="text/css">
	.st0{fill:#C6002F;}
</style>
<g>
	<g>
		<path d="M8.3,39.9c-3.1,0-5.4-0.9-6.9-2.7c-1.5-1.8-1.8-4.3-1-7.6c0.6-2.7,2-4.8,4.2-6.5c2.2-1.7,4.7-2.5,7.6-2.5
			c2.4,0,4.4,0.6,5.9,1.7c1.5,1.2,2.2,2.8,2.2,5h-3.9c-0.1-1.2-0.5-2.1-1.3-2.8c-0.8-0.6-1.8-0.9-3.2-0.9c-1.8,0-3.3,0.6-4.7,1.7
			c-1.4,1.1-2.3,2.7-2.7,4.6c-0.5,2.2-0.4,3.9,0.3,5.1c0.8,1.2,2.1,1.8,3.9,1.8c1.5,0,2.8-0.4,4-1.1c1.2-0.8,2-1.8,2.6-3.2h3.9
			c-0.8,2.4-2.2,4.2-4.1,5.5C13.2,39.3,10.9,39.9,8.3,39.9z"/>
		<path d="M32.6,24.4l3-3.3h4.5L29.7,32.2L28,39.5h-3.9l1.7-7.3l-5.1-11.2h4.3l1.5,3.3c0.4,1,1.1,2.6,2,4.7
			C30.8,26.4,32.2,24.8,32.6,24.4z"/>
		<path d="M48.3,23.7c-1.8,0-3.4,0.6-4.7,1.7c-1.3,1.1-2.2,2.6-2.7,4.6c-0.5,2.1-0.4,3.8,0.5,5.1c0.9,1.2,2.2,1.9,4.2,1.9
			c1.6,0,3-0.4,4.3-1.2c1.2-0.8,2.1-1.9,2.5-3.2h-5.4l0.7-2.8H57l-2.4,9.9h-2.9l0-2.3C50,39,47.7,39.9,45,39.9
			c-3.1,0-5.4-0.9-6.9-2.8c-1.5-1.8-1.9-4.4-1.1-7.5c0.6-2.7,2-4.8,4.1-6.5c2.1-1.7,4.7-2.5,7.7-2.5c2.6,0,4.7,0.6,6.3,1.8
			c1.5,1.2,2.3,2.8,2.2,4.8h-4c-0.1-1.1-0.6-1.9-1.4-2.6C50.9,24,49.8,23.7,48.3,23.7z"/>
		<path d="M74.3,25.9l1.2-4.8h3.8l-4.4,18.4h-4.3l-3.8-8.2c-1-2.1-1.8-4-2.4-5.7c-0.5,2.6-1.2,5.6-2,9.1l-1.2,4.8h-3.8l4.4-18.4H66
			l3.8,8.2c1.2,2.6,2,4.5,2.4,5.8C73,31.7,73.6,28.6,74.3,25.9z"/>
		<path d="M87.4,39.9c-2.8,0-4.9-0.7-6.3-2.2c-1.4-1.4-1.7-3.5-1-6.3l2.5-10.3h3.9L84,31.9c-0.4,1.6-0.3,2.9,0.4,3.7
			c0.7,0.8,1.8,1.2,3.4,1.2c3.1,0,4.9-1.5,5.6-4.4L96,21.1h3.9l-2.8,12c-0.5,2.2-1.6,3.9-3.3,5.1C92.2,39.3,90.1,39.9,87.4,39.9z"/>
		<path d="M107,39.9c-2.9,0-5.1-0.6-6.4-1.7c-1.4-1.1-1.9-2.7-1.5-4.8h3.9c-0.2,1.3,0.1,2.2,0.8,2.8c0.8,0.6,2,0.9,3.7,0.9
			c1.3,0,2.3-0.2,3-0.6c0.8-0.4,1.2-1,1.4-1.7c0.2-0.9,0.1-1.5-0.4-1.9c-0.5-0.4-1.5-0.8-3.1-1.1l-1.7-0.3c-2-0.4-3.5-1-4.4-2.1
			c-0.9-1-1.2-2.3-0.9-3.9c0.3-1.5,1.3-2.7,2.8-3.5c1.5-0.9,3.4-1.3,5.7-1.3c2.8,0,4.9,0.5,6.1,1.6c1.2,1,1.7,2.5,1.3,4.4h-3.8
			c0.2-1,0-1.8-0.6-2.3c-0.6-0.5-1.7-0.8-3.2-0.8c-2.5,0-3.9,0.7-4.2,2.2c-0.2,0.8,0,1.4,0.5,1.8c0.5,0.4,1.5,0.8,2.9,1.1l1.7,0.3
			c4.4,0.8,6.2,2.8,5.4,6c-0.4,1.6-1.3,2.8-2.9,3.7C111.4,39.5,109.4,39.9,107,39.9z"/>
	</g>
	<g>
		<g>
			<path d="M48,47.9l-1.4,0l-0.1-1l-2.3,0l-0.5,1l-1.4,0l3.2-5.5l1.6,0L48,47.9z M45.4,44.9l-0.5,0.9l1.6,0l-0.1-0.9
				c-0.1-0.5-0.1-0.9-0.2-1.4C45.8,44,45.6,44.5,45.4,44.9z"/>
			<path d="M52.8,47.9l-1.3,0l1.1-5.5l1.3,0L52.8,47.9z"/>
			<path d="M57.9,42.3l2.4,0c0.7,0,1.2,0.1,1.5,0.5c0.3,0.3,0.4,0.7,0.3,1.3c-0.1,0.3-0.2,0.5-0.4,0.8c-0.2,0.2-0.5,0.4-0.8,0.5
				c0.5,0.2,0.7,0.6,0.6,1.2l-0.1,0.7c0,0.3,0,0.5,0,0.7l-1.4,0c0-0.1,0-0.4,0-0.7l0.1-0.6c0.1-0.3,0-0.5-0.1-0.6
				c-0.1-0.1-0.3-0.2-0.6-0.2l-1.1,0l-0.4,2l-1.3,0L57.9,42.3z M58.7,44.8l1.1,0c0.3,0,0.5-0.1,0.7-0.2c0.2-0.1,0.3-0.3,0.3-0.5
				c0.1-0.5-0.1-0.8-0.7-0.8l-1.1,0L58.7,44.8z"/>
			<path d="M67.7,47.9c-0.9,0-1.5-0.3-1.9-0.8c-0.4-0.5-0.5-1.3-0.3-2.3c0.2-0.8,0.5-1.4,1.1-1.9c0.6-0.5,1.3-0.8,2.1-0.8
				c0.7,0,1.2,0.2,1.7,0.5c0.4,0.4,0.6,0.9,0.6,1.5l-1.3,0c0-0.3-0.1-0.6-0.3-0.7c-0.2-0.2-0.4-0.2-0.8-0.2c-0.4,0-0.8,0.2-1.1,0.5
				c-0.3,0.3-0.5,0.7-0.6,1.2c-0.1,0.6-0.1,1.1,0.1,1.4c0.2,0.3,0.5,0.5,0.9,0.5c0.3,0,0.7-0.1,0.9-0.3c0.3-0.2,0.5-0.5,0.6-0.8
				l1.3,0c-0.2,0.7-0.6,1.3-1.1,1.7C69.1,47.7,68.4,47.9,67.7,47.9z"/>
			<path d="M75.1,42.2l2.4,0c0.7,0,1.2,0.1,1.5,0.5c0.3,0.3,0.4,0.7,0.3,1.3c-0.1,0.3-0.2,0.5-0.4,0.8c-0.2,0.2-0.5,0.4-0.8,0.5
				c0.5,0.2,0.7,0.6,0.6,1.2l-0.1,0.7c0,0.3,0,0.5,0,0.7l-1.4,0c0-0.1,0-0.4,0-0.7l0.1-0.6c0.1-0.3,0-0.5-0.1-0.6
				c-0.1-0.1-0.3-0.2-0.6-0.2l-1.1,0l-0.4,2l-1.3,0L75.1,42.2z M75.9,44.7l1.1,0c0.3,0,0.5-0.1,0.7-0.2c0.2-0.1,0.3-0.3,0.3-0.5
				c0.1-0.5-0.1-0.8-0.7-0.8l-1.1,0L75.9,44.7z"/>
			<path d="M87.5,47.7l-1.4,0l-0.1-1l-2.3,0l-0.5,1l-1.4,0l3.2-5.5l1.6,0L87.5,47.7z M84.8,44.7l-0.5,0.9l1.6,0l-0.1-0.9
				c-0.1-0.5-0.1-0.9-0.2-1.4C85.3,43.8,85,44.3,84.8,44.7z"/>
			<path d="M96.1,42.1l-0.2,1.2l-2.7,0l-0.2,1l2.5,0l-0.2,1.1l-2.5,0l-0.5,2.2l-1.3,0l1.1-5.5L96.1,42.1z"/>
			<path d="M99.5,42.1l4.7,0l-0.2,1.2l-1.7,0l-0.9,4.4l-1.3,0l0.9-4.4l-1.7,0L99.5,42.1z"/>
			<path d="M108.9,47.7c-0.8,0-1.4-0.2-1.8-0.5c-0.4-0.3-0.5-0.8-0.4-1.4l1.3,0c-0.1,0.3,0,0.6,0.2,0.7c0.2,0.1,0.5,0.2,0.9,0.2
				c0.3,0,0.5-0.1,0.7-0.2c0.2-0.1,0.3-0.2,0.3-0.4c0.1-0.2,0-0.4-0.1-0.5c-0.1-0.1-0.4-0.2-0.7-0.3l-0.4-0.1
				c-0.6-0.1-1-0.3-1.2-0.6c-0.3-0.3-0.3-0.7-0.2-1.2c0.1-0.4,0.3-0.8,0.8-1.1c0.4-0.3,0.9-0.4,1.6-0.4c0.8,0,1.3,0.1,1.7,0.5
				c0.4,0.3,0.5,0.8,0.4,1.3l-1.2,0c0-0.3,0-0.5-0.1-0.6c-0.1-0.1-0.4-0.2-0.7-0.2c-0.6,0-0.9,0.2-1,0.5c0,0.2,0,0.3,0.1,0.4
				c0.1,0.1,0.3,0.2,0.7,0.2l0.5,0.1c0.6,0.1,1.1,0.3,1.3,0.6c0.3,0.3,0.3,0.7,0.2,1.2c-0.1,0.5-0.4,0.9-0.8,1.2
				C110.1,47.5,109.5,47.7,108.9,47.7z"/>
		</g>
	</g>
	<path d="M117.3,25.7"/>
	<g>
		<g>
			<path class="st0" d="M125.4,27.6c0,0,18.5-5,20.9-6.9c2.5-2,4.8-6.4,4.8-6.4s-16.2,4.5-19.5,6.7S125.4,27.6,125.4,27.6z"/>
			<path class="st0" d="M121.1,37.7c0,0,14.3-3.8,16.1-5.3c1.9-1.5,3.7-5,3.7-5s-12.5,3.5-15.1,5.2
				C123.3,34.2,121.1,37.7,121.1,37.7z"/>
			<path class="st0" d="M117.8,46.4c0,0,10.1-2.7,11.4-3.8c1.3-1.1,2.6-3.5,2.6-3.5s-8.8,2.5-10.6,3.6
				C119.4,44,117.8,46.4,117.8,46.4z"/>
		</g>
	</g>
</g>
</svg>
