<?xml version="1.0" encoding="utf-8"?>
<!-- Generator: Adobe Illustrator 26.0.1, SVG Export Plug-In . SVG Version: 6.00 Build 0)  -->
<svg version="1.1" id="Camada_1" xmlns="http://www.w3.org/2000/svg" xmlns:xlink="http://www.w3.org/1999/xlink" x="0px" y="0px"
	 viewBox="0 0 13.5 13.56" style="enable-background:new 0 0 13.5 13.56;" xml:space="preserve">
<style type="text/css">
	.st0{fill:#BB1C35;}
	.st1{fill:url(#SVGID_1_);}
	.st2{clip-path:url(#SVGID_00000159447108010098052350000014737249884684599936_);}
	
		.st3{clip-path:url(#SVGID_00000159447108010098052350000014737249884684599936_);fill:url(#SVGID_00000132070606610363561500000007682862031018613408_);}
	
		.st4{clip-path:url(#SVGID_00000159447108010098052350000014737249884684599936_);fill:url(#SVGID_00000126322838098589570470000008180914851331538051_);}
	.st5{clip-path:url(#SVGID_00000079443866571270456220000011567316641667811743_);}
	
		.st6{clip-path:url(#SVGID_00000079443866571270456220000011567316641667811743_);fill:url(#SVGID_00000089553297559688888990000002074381553150792371_);}
	
		.st7{clip-path:url(#SVGID_00000079443866571270456220000011567316641667811743_);fill:url(#SVGID_00000007396537410797060070000016054021168019752335_);}
	
		.st8{clip-path:url(#BG_00000058580401375133837230000000352756870327624613_);fill:url(#SVGID_00000157301233249020669780000017043784861784477096_);}
	.st9{fill:none;}
	.st10{fill:#CDCDD2;}
	.st11{fill:#DEDEE2;}
	
		.st12{clip-path:url(#BG_00000107565063381089622850000002412915323234548608_);fill:url(#BG_00000108309275974582532130000003794153841961271987_);}
	.st13{clip-path:url(#BG_00000165214263564889162630000006699862522661566096_);fill:none;}
	.st14{fill:#FFFFFF;}
	
		.st15{clip-path:url(#BG_00000075857809139486889110000008682280456686781071_);fill:url(#SVGID_00000025436319540898366100000008455188302891285430_);}
	.st16{fill:#F4F4F6;}
	.st17{fill:none;stroke:#FFFFFF;stroke-width:0.5;stroke-miterlimit:10;}
	.st18{fill:none;stroke:#000000;stroke-miterlimit:10;}
	.st19{fill:none;stroke:#FFFFFF;stroke-miterlimit:10;}
	.st20{fill:#222546;}
	.st21{fill:#AC8566;}
	.st22{fill-rule:evenodd;clip-rule:evenodd;fill:#FFFFFF;}
	.st23{clip-path:url(#SVGID_00000179638178130279349530000013250555573387834259_);}
	.st24{clip-path:url(#SVGID_00000179638178130279349530000013250555573387834259_);fill:#BB1C35;}
</style>
<g id="WhatsApp_Logo-7-1_00000153670000324517784500000009654113523109096342_" transform="translate(-294.9605,256.13709)">
	<g id="WA_Logo-5_00000169532795175684922460000002787899459420426913_">
		<path id="path4-1_00000012452410590342077040000000261864202120686474_" class="st22" d="M306.49-254.17
			c-1.27-1.27-2.95-1.97-4.75-1.97c-3.71,0-6.72,3.02-6.72,6.72c0,1.19,0.31,2.34,0.9,3.36l-0.95,3.48l3.56-0.93
			c0.98,0.53,2.09,0.82,3.21,0.82h0l0,0c3.7,0,6.72-3.02,6.72-6.72C308.46-251.21,307.76-252.9,306.49-254.17z M301.74-243.83
			L301.74-243.83c-1.01,0-1.99-0.27-2.85-0.78l-0.2-0.12l-2.11,0.55l0.56-2.06l-0.13-0.21c-0.56-0.89-0.85-1.92-0.85-2.97
			c0-3.08,2.51-5.58,5.59-5.58c1.49,0,2.89,0.58,3.95,1.64c1.05,1.06,1.63,2.46,1.63,3.95
			C307.32-246.33,304.82-243.83,301.74-243.83z M304.8-248.01c-0.17-0.08-0.99-0.49-1.15-0.55c-0.15-0.05-0.27-0.08-0.38,0.08
			c-0.11,0.17-0.43,0.55-0.53,0.66c-0.1,0.11-0.2,0.13-0.36,0.04c-0.17-0.08-0.71-0.26-1.35-0.83c-0.5-0.44-0.83-1-0.93-1.16
			c-0.1-0.17-0.01-0.26,0.07-0.34c0.07-0.07,0.17-0.2,0.25-0.29c0.08-0.1,0.11-0.17,0.17-0.28c0.05-0.11,0.03-0.21-0.01-0.29
			c-0.04-0.08-0.38-0.91-0.52-1.25c-0.14-0.33-0.27-0.28-0.38-0.29c-0.1-0.01-0.21-0.01-0.32-0.01s-0.29,0.04-0.45,0.21
			c-0.15,0.17-0.59,0.57-0.59,1.4c0,0.83,0.6,1.62,0.69,1.74c0.08,0.11,1.18,1.81,2.87,2.54c0.4,0.17,0.71,0.28,0.96,0.35
			c0.4,0.13,0.77,0.11,1.06,0.07c0.32-0.05,0.99-0.41,1.13-0.8c0.14-0.39,0.14-0.73,0.1-0.8
			C305.08-247.89,304.97-247.93,304.8-248.01L304.8-248.01z"/>
	</g>
</g>
</svg>
