<?xml version="1.0" encoding="utf-8"?>
<!-- Generator: Adobe Illustrator 23.1.0, SVG Export Plug-In . SVG Version: 6.00 Build 0)  -->
<svg version="1.1" id="Layer_1" xmlns="http://www.w3.org/2000/svg" xmlns:xlink="http://www.w3.org/1999/xlink" x="0px" y="0px"
	 viewBox="0 0 23.78 23.78" style="enable-background:new 0 0 23.78 23.78;" xml:space="preserve">
<style type="text/css">
	.st0{fill:#FFFFFF;}
</style>
<path class="st0" d="M11.89,2.14c3.17,0,3.55,0.01,4.81,0.07c3.22,0.15,4.73,1.68,4.87,4.87c0.06,1.25,0.07,1.63,0.07,4.8
	c0,3.18-0.01,3.55-0.07,4.8c-0.15,3.2-1.65,4.73-4.87,4.87c-1.25,0.06-1.63,0.07-4.81,0.07c-3.17,0-3.55-0.01-4.8-0.07
	c-3.23-0.15-4.73-1.68-4.87-4.88c-0.06-1.25-0.07-1.63-0.07-4.8c0-3.17,0.01-3.55,0.07-4.8c0.15-3.2,1.65-4.73,4.87-4.87
	C8.34,2.16,8.72,2.14,11.89,2.14z M11.89,0c-3.23,0-3.63,0.01-4.9,0.07c-4.32,0.2-6.72,2.59-6.92,6.92C0.01,8.26,0,8.66,0,11.89
	s0.01,3.63,0.07,4.9c0.2,4.32,2.59,6.72,6.92,6.92c1.27,0.06,1.67,0.07,4.9,0.07s3.63-0.01,4.9-0.07c4.31-0.2,6.72-2.59,6.92-6.92
	c0.06-1.27,0.07-1.67,0.07-4.9s-0.01-3.63-0.07-4.9c-0.19-4.31-2.59-6.72-6.92-6.92C15.53,0.01,15.12,0,11.89,0z M11.89,5.78
	c-3.37,0-6.11,2.73-6.11,6.11S8.52,18,11.89,18S18,15.26,18,11.89C18,8.52,15.26,5.78,11.89,5.78z M11.89,15.85
	c-2.19,0-3.96-1.77-3.96-3.96c0-2.19,1.77-3.96,3.96-3.96s3.96,1.77,3.96,3.96C15.85,14.08,14.08,15.85,11.89,15.85z M18.24,4.12
	c-0.79,0-1.43,0.64-1.43,1.43s0.64,1.43,1.43,1.43c0.79,0,1.43-0.64,1.43-1.43S19.03,4.12,18.24,4.12z"/>
</svg>
