<?xml version="1.0" encoding="utf-8"?>
<!-- Generator: Adobe Illustrator 26.0.1, SVG Export Plug-In . SVG Version: 6.00 Build 0)  -->
<svg version="1.1" id="Camada_1" xmlns="http://www.w3.org/2000/svg" xmlns:xlink="http://www.w3.org/1999/xlink" x="0px" y="0px"
	 viewBox="0 0 44.96 18.96" style="enable-background:new 0 0 44.96 18.96;" xml:space="preserve">
<style type="text/css">
	.st0{fill:#BB1C35;}
	.st1{fill:url(#SVGID_1_);}
	.st2{clip-path:url(#SVGID_00000018929783726467972400000013170124914182889887_);}
	
		.st3{clip-path:url(#SVGID_00000018929783726467972400000013170124914182889887_);fill:url(#SVGID_00000153677770397210035270000014194219559358157198_);}
	
		.st4{clip-path:url(#SVGID_00000018929783726467972400000013170124914182889887_);fill:url(#SVGID_00000152262573646156074150000014133310718310899864_);}
	.st5{clip-path:url(#SVGID_00000007422262780451252970000012937718076044981413_);}
	
		.st6{clip-path:url(#SVGID_00000007422262780451252970000012937718076044981413_);fill:url(#SVGID_00000107588601108218119420000009242734762802044346_);}
	
		.st7{clip-path:url(#SVGID_00000007422262780451252970000012937718076044981413_);fill:url(#SVGID_00000152242531101372679220000018023558864143292321_);}
	
		.st8{clip-path:url(#BG_00000023996005323771356120000001716976166875825545_);fill:url(#SVGID_00000101799031106831064430000004871570417017066130_);}
	.st9{fill:none;}
	.st10{fill:#CDCDD2;}
	.st11{fill:#DEDEE2;}
	
		.st12{clip-path:url(#BG_00000079478423668862718180000006954216676738150026_);fill:url(#BG_00000088842325502905459210000015579713390330069434_);}
	.st13{clip-path:url(#BG_00000081645914446842300110000002563918616660914602_);fill:none;}
	.st14{fill:#FFFFFF;}
	
		.st15{clip-path:url(#BG_00000140720450055270976800000011940726330361864876_);fill:url(#SVGID_00000130634229305996720410000004649955106067588746_);}
	.st16{fill:#F4F4F6;}
	.st17{fill:none;stroke:#FFFFFF;stroke-width:0.5;stroke-miterlimit:10;}
	.st18{fill:none;stroke:#000000;stroke-miterlimit:10;}
	.st19{fill:none;stroke:#FFFFFF;stroke-miterlimit:10;}
	.st20{fill:#222546;}
	.st21{fill:#AC8566;}
	.st22{fill-rule:evenodd;clip-rule:evenodd;fill:#FFFFFF;}
	.st23{clip-path:url(#SVGID_00000100343538651960501380000015659614042395324056_);}
	.st24{clip-path:url(#SVGID_00000100343538651960501380000015659614042395324056_);fill:#BB1C35;}
</style>
<g>
	<path class="st14" d="M13.61,13.7c-1.31,0-2.62-0.01-3.92,0.01c-0.31,0-0.43-0.03-0.36-0.39c0.65-3.29,1.28-6.59,1.9-9.89
		c0.04-0.24,0.15-0.3,0.37-0.3c2.7,0,5.4,0,8.11-0.02c0.26,0,0.34,0.09,0.27,0.33c-0.01,0.03-0.01,0.06-0.02,0.08
		c-0.11,0.44-0.03,1.03-0.33,1.3c-0.31,0.28-0.88,0.08-1.33,0.09c-1.55,0.02-3.1,0.03-4.66,0.01c-0.36,0-0.47,0.13-0.52,0.45
		c-0.08,0.54-0.17,1.08-0.3,1.61c-0.1,0.4,0.04,0.46,0.39,0.45c1.62-0.03,3.25-0.04,4.87-0.05c0.53,0,0.53,0,0.42,0.53
		c-0.08,0.39-0.05,0.91-0.29,1.14C17.94,9.29,17.41,9.12,17,9.12c-1.41,0.02-2.82,0.02-4.23,0.01c-0.29,0-0.41,0.09-0.45,0.38
		c-0.1,0.64-0.2,1.28-0.36,1.9c-0.11,0.41,0.05,0.45,0.39,0.45c1.8-0.02,3.59-0.02,5.39-0.03c0.57,0,0.58,0,0.47,0.54
		c-0.08,0.4,0,0.94-0.29,1.18c-0.29,0.24-0.8,0.08-1.21,0.08c-1.03,0.01-2.07,0-3.1,0C13.61,13.66,13.61,13.68,13.61,13.7z"/>
	<path class="st14" d="M26.02,3.04c1.35,0,2.7,0.01,4.05-0.01c0.34,0,0.44,0.09,0.36,0.42c-0.09,0.35-0.17,0.7-0.21,1.05
		c-0.03,0.29-0.17,0.34-0.42,0.34c-1.02,0-2.04,0.03-3.06,0.04c-0.28,0-0.39,0.07-0.45,0.37c-0.5,2.65-1.02,5.3-1.52,7.95
		c-0.06,0.31-0.16,0.45-0.49,0.43c-0.47-0.03-0.95-0.03-1.42,0c-0.35,0.02-0.46-0.09-0.39-0.44c0.28-1.36,0.54-2.73,0.8-4.1
		c0.24-1.24,0.47-2.48,0.72-3.72c0.07-0.35,0.01-0.49-0.39-0.48c-0.98,0.03-1.96,0.01-2.93,0.02c-0.26,0-0.42-0.02-0.31-0.35
		c0.09-0.27,0.12-0.56,0.17-0.84c0.11-0.61,0.11-0.61,0.75-0.61c1.58,0,3.16,0,4.74,0C26.02,3.08,26.02,3.06,26.02,3.04z"/>
	<path class="st14" d="M30.74,7.33c0.33-0.54,0.74-1.01,1.12-1.51c1.28-1.69,3.01-2.68,5-3.34c2.55-0.85,5.1-1.66,7.69-2.39
		c0.13-0.04,0.29-0.16,0.39-0.02c0.08,0.11-0.05,0.24-0.12,0.35c-0.67,1.12-1.34,2.25-2.38,3.08c-0.71,0.57-1.58,0.8-2.42,1.1
		C37.06,5.65,34.03,6.49,31,7.33C30.93,7.35,30.85,7.41,30.74,7.33z"/>
	<path class="st14" d="M1.43,9.97c0.33,0,0.76-0.13,0.96,0.03c0.24,0.19-0.04,0.6-0.06,0.91c-0.03,0.7,0.37,1.19,1.07,1.27
		c1.31,0.15,2.27-0.37,2.52-1.83C6.3,8.09,6.77,5.85,7.19,3.59c0.06-0.31,0.16-0.48,0.52-0.46c0.46,0.03,0.92,0.03,1.38-0.01
		C9.46,3.1,9.53,3.24,9.47,3.57C9.23,4.77,9,5.96,8.77,7.16C8.55,8.27,8.34,9.38,8.12,10.5c-0.35,1.84-1.73,3.13-3.6,3.38
		C3.87,13.97,3.22,14,2.56,13.9c-1.82-0.27-2.69-1.47-2.35-3.26c0.01-0.07,0.05-0.14,0.05-0.21c0-0.39,0.19-0.53,0.57-0.48
		c0.2,0.02,0.4,0,0.6,0C1.43,9.96,1.43,9.97,1.43,9.97z"/>
	<path class="st14" d="M28.35,13c0.32-0.57,0.73-1.02,1.12-1.49c0.88-1.07,2.03-1.71,3.31-2.15c2.08-0.72,4.17-1.37,6.28-1.97
		c0.07-0.02,0.14-0.02,0.28-0.05c-0.31,0.72-0.75,1.29-1.17,1.87c-0.5,0.7-1.18,1.15-1.99,1.44c-2.5,0.91-5.05,1.64-7.61,2.34
		C28.53,13.01,28.47,13,28.35,13z"/>
	<path class="st14" d="M26.45,17.96c0.88-1.38,1.96-2.29,3.44-2.74c1.4-0.43,2.79-0.88,4.19-1.29c0.04-0.01,0.08,0,0.2,0
		c-0.52,0.86-0.94,1.74-1.87,2.15c-1.46,0.65-3,1.04-4.53,1.49C27.44,17.7,27,17.82,26.45,17.96z"/>
	<path class="st14" d="M13.84,18.89c-0.86,0-1.39-0.48-1.39-1.28c0-1.1,0.83-1.97,1.9-1.97c0.83,0,1.35,0.48,1.36,1.27
		C15.71,18.06,14.93,18.89,13.84,18.89z M14.92,17.02c0-0.53-0.37-0.82-0.88-0.69c-0.54,0.14-0.97,0.97-0.77,1.5
		c0.13,0.34,0.39,0.44,0.72,0.41C14.52,18.18,14.93,17.64,14.92,17.02z"/>
	<path class="st14" d="M23.63,15.61c0.38-0.01,0.76,0.02,1,0.37c0.14,0.19,0.24,0.49,0.03,0.6c-0.17,0.09-0.51,0.22-0.68-0.17
		c-0.12-0.28-0.73-0.29-0.89-0.04c-0.12,0.18-0.05,0.34,0.13,0.42c0.16,0.07,0.33,0.09,0.5,0.12c0.41,0.09,0.8,0.2,0.87,0.69
		c0.07,0.5-0.19,0.93-0.69,1.12c-0.48,0.18-0.98,0.19-1.47,0.01c-0.21-0.08-0.39-0.19-0.46-0.42c-0.05-0.18-0.21-0.45,0.04-0.52
		c0.2-0.06,0.58-0.3,0.68,0.2c0.05,0.24,0.27,0.23,0.45,0.23c0.21,0.01,0.45,0.03,0.58-0.19c0.12-0.2,0.04-0.37-0.19-0.43
		c-0.19-0.05-0.39-0.07-0.59-0.12c-0.38-0.09-0.67-0.29-0.72-0.7c-0.04-0.4,0.11-0.72,0.46-0.95C22.97,15.64,23.29,15.6,23.63,15.61
		z"/>
	<path class="st14" d="M19.26,15.7c0.26,0,0.52-0.02,0.77,0.01c0.13,0.01,0.4-0.13,0.36,0.19c-0.03,0.22-0.01,0.51-0.4,0.48
		c-0.34-0.03-0.69,0.01-1.03-0.01c-0.24-0.01-0.33,0.1-0.35,0.33c-0.02,0.27,0.18,0.21,0.32,0.21c0.24,0.01,0.49-0.01,0.73,0
		c0.14,0,0.36-0.07,0.32,0.2c-0.03,0.19,0.01,0.46-0.33,0.45c-0.32-0.01-0.63,0.01-0.95,0c-0.27-0.01-0.36,0.13-0.36,0.37
		c0,0.27,0.2,0.19,0.34,0.19c0.27,0.01,0.55-0.01,0.82,0.01c0.14,0.01,0.41-0.12,0.37,0.18c-0.03,0.21,0.02,0.51-0.38,0.5
		c-0.59-0.02-1.18-0.01-1.77,0c-0.24,0-0.35-0.06-0.29-0.32c0.18-0.83,0.35-1.65,0.52-2.48c0.04-0.22,0.14-0.32,0.38-0.31
		C18.65,15.71,18.96,15.7,19.26,15.7C19.26,15.7,19.26,15.7,19.26,15.7z"/>
	<path class="st14" d="M2.14,15.8c0.35-0.09,0.48,0.07,0.53,0.41c0.11,0.78,0.26,1.55,0.39,2.33c0.02,0.13,0.12,0.33-0.11,0.34
		c-0.21,0.01-0.55,0.17-0.62-0.15c-0.08-0.36-0.27-0.38-0.55-0.36c-0.16,0.01-0.32,0.01-0.47,0c-0.21-0.02-0.35,0.06-0.44,0.26
		c-0.05,0.13-0.11,0.29-0.28,0.29c-0.19,0.01-0.44,0.11-0.57-0.06c-0.1-0.14,0.09-0.31,0.17-0.45c0.42-0.75,0.86-1.49,1.27-2.24
		C1.63,15.88,1.8,15.71,2.14,15.8z M2.02,16.47c-0.22,0.42-0.39,0.75-0.56,1.07c-0.05,0.09-0.09,0.17,0.07,0.21
		c0.48,0.12,0.68-0.03,0.61-0.51C2.11,17.02,2.07,16.8,2.02,16.47z"/>
	<path class="st14" d="M6.08,18.06c0.35-0.69,0.69-1.29,0.96-1.91c0.17-0.39,0.43-0.43,0.78-0.41c0.19,0.01,0.22,0.09,0.13,0.25
		c-0.49,0.91-0.97,1.82-1.47,2.72c-0.19,0.34-0.55,0.15-0.83,0.17c-0.26,0.02-0.2-0.24-0.23-0.39c-0.14-0.76-0.27-1.52-0.4-2.29
		C5,16.02,4.9,15.78,5.26,15.78c0.25,0,0.51-0.13,0.55,0.31C5.86,16.71,5.98,17.33,6.08,18.06z"/>
	<path class="st14" d="M10.39,15.73c0.31-0.06,0.37,0.05,0.3,0.35c-0.19,0.82-0.37,1.65-0.51,2.48c-0.08,0.47-0.42,0.32-0.67,0.3
		c-0.3-0.03-0.11-0.28-0.09-0.4c0.15-0.79,0.34-1.57,0.48-2.35C9.96,15.79,10.09,15.67,10.39,15.73z"/>
	<path class="st14" d="M14.69,15.49c-0.27-0.12-0.57-0.18-0.9-0.01c-0.12,0.07-0.26-0.02-0.17-0.21c0.09-0.21,0.23-0.41,0.46-0.4
		c0.37,0.01,0.73,0.16,1.1-0.01c0.11-0.05,0.17,0.06,0.13,0.19C15.2,15.32,15.02,15.47,14.69,15.49z"/>
</g>
</svg>
