<?xml version="1.0" encoding="utf-8"?>
<!-- Generator: Adobe Illustrator 26.0.1, SVG Export Plug-In . SVG Version: 6.00 Build 0)  -->
<svg version="1.1" id="Camada_1" xmlns="http://www.w3.org/2000/svg" xmlns:xlink="http://www.w3.org/1999/xlink" x="0px" y="0px"
	 viewBox="0 0 7.49 7.49" style="enable-background:new 0 0 7.49 7.49;" xml:space="preserve">
<style type="text/css">
	.st0{fill:#BB1C35;}
	.st1{fill:url(#SVGID_1_);}
	.st2{clip-path:url(#SVGID_00000128487562585507961180000017513815315164395911_);}
	
		.st3{clip-path:url(#SVGID_00000128487562585507961180000017513815315164395911_);fill:url(#SVGID_00000003788864131641581570000011771032204218913935_);}
	
		.st4{clip-path:url(#SVGID_00000128487562585507961180000017513815315164395911_);fill:url(#SVGID_00000156588239309890566940000013020454874015621562_);}
	.st5{clip-path:url(#SVGID_00000009580439771353088660000010677029939439051393_);}
	
		.st6{clip-path:url(#SVGID_00000009580439771353088660000010677029939439051393_);fill:url(#SVGID_00000012442893122373093790000007847340941586235791_);}
	
		.st7{clip-path:url(#SVGID_00000009580439771353088660000010677029939439051393_);fill:url(#SVGID_00000173864928072474859460000008411131465122342577_);}
	
		.st8{clip-path:url(#BG_00000111882396387284989240000017603201096972625050_);fill:url(#SVGID_00000096053080323125740460000005915743772746839948_);}
	.st9{fill:none;}
	.st10{fill:#CDCDD2;}
	.st11{fill:#DEDEE2;}
	
		.st12{clip-path:url(#BG_00000014596790314403252840000014865698838405879982_);fill:url(#BG_00000054249335033337212690000016006049740197868169_);}
	.st13{clip-path:url(#BG_00000119113942300856040620000011008833525569580733_);fill:none;}
	.st14{fill:#FFFFFF;}
	
		.st15{clip-path:url(#BG_00000143597971414520434610000010157426139025558154_);fill:url(#SVGID_00000157986660506238839780000011404243359767379639_);}
	.st16{fill:#F4F4F6;}
	.st17{fill:none;stroke:#FFFFFF;stroke-width:0.5;stroke-miterlimit:10;}
	.st18{fill:none;stroke:#000000;stroke-miterlimit:10;}
	.st19{fill:none;stroke:#FFFFFF;stroke-miterlimit:10;}
	.st20{fill:#222546;}
	.st21{fill:#AC8566;}
	.st22{fill-rule:evenodd;clip-rule:evenodd;fill:#FFFFFF;}
	.st23{clip-path:url(#SVGID_00000007423138742623107240000012216518019771186343_);}
	.st24{clip-path:url(#SVGID_00000007423138742623107240000012216518019771186343_);fill:#BB1C35;}
</style>
<path d="M3.75,0.69c1,0,1.12,0,1.53,0.03C6.3,0.75,6.77,1.25,6.8,2.25c0.03,0.41,0.03,0.5,0.03,1.5s0,1.12-0.03,1.5
	c-0.03,1-0.53,1.5-1.53,1.53C4.87,6.8,4.77,6.8,3.75,6.8c-1,0-1.12,0-1.5-0.03c-1.03-0.03-1.5-0.53-1.53-1.53
	c-0.03-0.41-0.03-0.5-0.03-1.5s0-1.12,0.03-1.5c0.03-1,0.53-1.5,1.53-1.53C2.62,0.69,2.75,0.69,3.75,0.69z M3.75,0
	C2.72,0,2.59,0,2.22,0.03C0.84,0.09,0.09,0.84,0.03,2.22C0,2.59,0,2.72,0,3.75S0,4.9,0.03,5.27C0.09,6.65,0.84,7.4,2.22,7.46
	c0.37,0.03,0.5,0.03,1.53,0.03s1.15,0,1.53-0.03C6.65,7.4,7.4,6.65,7.46,5.27c0.03-0.37,0.03-0.5,0.03-1.53s0-1.15-0.03-1.53
	C7.4,0.84,6.65,0.09,5.27,0.03C4.9,0,4.77,0,3.75,0z M3.75,1.81c-1.06,0-1.93,0.87-1.93,1.93s0.87,1.93,1.93,1.93
	s1.93-0.87,1.93-1.93S4.81,1.81,3.75,1.81z M3.75,4.99c-0.69,0-1.25-0.56-1.25-1.25S3.06,2.5,3.75,2.5s1.25,0.56,1.25,1.25
	S4.43,4.99,3.75,4.99z M5.74,1.31c-0.25,0-0.44,0.19-0.44,0.44s0.19,0.44,0.44,0.44S6.18,2,6.18,1.75S5.99,1.31,5.74,1.31z"/>
</svg>
