<?xml version="1.0" encoding="utf-8"?>
<!-- Generator: Adobe Illustrator 26.0.1, SVG Export Plug-In . SVG Version: 6.00 Build 0)  -->
<svg version="1.1" id="Camada_1" xmlns="http://www.w3.org/2000/svg" xmlns:xlink="http://www.w3.org/1999/xlink" x="0px" y="0px"
	 viewBox="0 0 37.95 31.51" style="enable-background:new 0 0 37.95 31.51;" xml:space="preserve">
<style type="text/css">
	.st0{fill:#BB1C35;}
	.st1{fill:url(#SVGID_1_);}
	.st2{clip-path:url(#SVGID_00000091737113929510109800000016718834802800638654_);}
	
		.st3{clip-path:url(#SVGID_00000091737113929510109800000016718834802800638654_);fill:url(#SVGID_00000158711234596792949130000000153233468058939551_);}
	
		.st4{clip-path:url(#SVGID_00000091737113929510109800000016718834802800638654_);fill:url(#SVGID_00000133522834227538556310000009270565775201589378_);}
	.st5{clip-path:url(#SVGID_00000045597660227780306760000011600049894584066473_);}
	
		.st6{clip-path:url(#SVGID_00000045597660227780306760000011600049894584066473_);fill:url(#SVGID_00000152976832847446121470000005175150200112808869_);}
	
		.st7{clip-path:url(#SVGID_00000045597660227780306760000011600049894584066473_);fill:url(#SVGID_00000016783146727122441730000007721217454136488603_);}
	
		.st8{clip-path:url(#BG_00000036957155359793900340000004688842486311433148_);fill:url(#SVGID_00000101807901500834030610000015272900041197979313_);}
	.st9{fill:none;}
	.st10{fill:#CDCDD2;}
	.st11{fill:#DEDEE2;}
	
		.st12{clip-path:url(#BG_00000077297805524328508760000000308726259130810497_);fill:url(#BG_00000146459878147306700810000015706067497457367716_);}
	.st13{clip-path:url(#BG_00000105406064190278587160000013525239481222445714_);fill:none;}
	.st14{fill:#FFFFFF;}
	
		.st15{clip-path:url(#BG_00000023987730499410717330000003702525058639618962_);fill:url(#SVGID_00000077306821359396654980000013440735278315350460_);}
	.st16{fill:#F4F4F6;}
	.st17{fill:none;stroke:#FFFFFF;stroke-width:0.5;stroke-miterlimit:10;}
	.st18{fill:none;stroke:#000000;stroke-miterlimit:10;}
	.st19{fill:none;stroke:#FFFFFF;stroke-miterlimit:10;}
	.st20{fill:#222546;}
	.st21{fill:#AC8566;}
	.st22{fill-rule:evenodd;clip-rule:evenodd;fill:#FFFFFF;}
	.st23{clip-path:url(#SVGID_00000047744098883624108670000014535196051758345108_);}
	.st24{clip-path:url(#SVGID_00000047744098883624108670000014535196051758345108_);fill:#BB1C35;}
</style>
<g>
	<circle class="st0" cx="15.76" cy="15.76" r="15.76"/>
	<g>
		<path d="M33.46,26.7c-5.46,0-10.87,0-16.33,0c0-5.81,0-11.58,0-17.4c5.45,0,10.86,0,16.33,0C33.46,15.08,33.46,20.86,33.46,26.7z"
			/>
		<path d="M15.79,9.27c0,5.87,0,11.62,0,17.46c-0.62,0-1.21,0.06-1.8-0.01c-0.72-0.09-1.32-0.84-1.32-1.64
			c-0.01-4.71-0.02-9.43,0-14.14c0-0.97,0.75-1.65,1.72-1.67C14.83,9.26,15.27,9.27,15.79,9.27z"/>
		<path d="M34.85,9.29c0.23-0.01,0.41-0.02,0.59-0.03c2.03-0.02,2.51,0.44,2.51,2.46c0,4.24,0,8.48,0,12.72
			c0,1.77-0.52,2.3-2.27,2.3c-0.26,0-0.52,0-0.83,0C34.85,20.92,34.85,15.15,34.85,9.29z"/>
		<path d="M22.27,7.09c0.05,0.31,0.09,0.54,0.13,0.84c-0.41,0-0.78,0-1.31,0c0-0.42-0.03-0.85,0.01-1.27
			c0.05-0.55,0.39-0.84,0.95-0.84c2.17,0,4.34,0,6.51,0c0.6,0,0.92,0.34,0.96,0.91c0.03,0.38-0.03,0.77-0.05,1.21
			c-0.43,0-0.81,0-1.23,0c0.02-0.26,0.04-0.51,0.07-0.85C26.32,7.09,24.33,7.09,22.27,7.09z"/>
		<path d="M18.11,8.08c-1.12,0-2.18,0-3.3,0c0-0.38,0-0.72,0-1.12c1.08,0,2.16,0,3.3,0C18.11,7.31,18.11,7.66,18.11,8.08z"/>
		<path d="M35.82,6.95c0,0.41,0,0.74,0,1.11c-1.12,0-2.21,0-3.33,0c0-0.38,0-0.73,0-1.11C33.6,6.95,34.68,6.95,35.82,6.95z"/>
	</g>
</g>
</svg>
