<?xml version="1.0" encoding="utf-8"?>
<!-- Generator: Adobe Illustrator 26.0.1, SVG Export Plug-In . SVG Version: 6.00 Build 0)  -->
<svg version="1.1" id="Camada_1" xmlns="http://www.w3.org/2000/svg" xmlns:xlink="http://www.w3.org/1999/xlink" x="0px" y="0px"
	 viewBox="0 0 38.77 31.51" style="enable-background:new 0 0 38.77 31.51;" xml:space="preserve">
<style type="text/css">
	.st0{fill:#BB1C35;}
	.st1{fill:url(#SVGID_1_);}
	.st2{clip-path:url(#SVGID_00000154399529018598216020000005507095871095659674_);}
	
		.st3{clip-path:url(#SVGID_00000154399529018598216020000005507095871095659674_);fill:url(#SVGID_00000031917450992361150370000012603386162733660303_);}
	
		.st4{clip-path:url(#SVGID_00000154399529018598216020000005507095871095659674_);fill:url(#SVGID_00000043434092016853355620000005007388255212051339_);}
	.st5{clip-path:url(#SVGID_00000046307771260982286560000003138650140069647512_);}
	
		.st6{clip-path:url(#SVGID_00000046307771260982286560000003138650140069647512_);fill:url(#SVGID_00000077295009084226930680000004947033018193107369_);}
	
		.st7{clip-path:url(#SVGID_00000046307771260982286560000003138650140069647512_);fill:url(#SVGID_00000140708287520469179910000012767203704216623750_);}
	
		.st8{clip-path:url(#BG_00000089545691562623012310000016305960265049909418_);fill:url(#SVGID_00000114072904644977240410000008678183181703413402_);}
	.st9{fill:none;}
	.st10{fill:#CDCDD2;}
	.st11{fill:#DEDEE2;}
	
		.st12{clip-path:url(#BG_00000167356454010435579180000008244508586296546740_);fill:url(#BG_00000006674433586429747330000006928959184088917405_);}
	.st13{clip-path:url(#BG_00000181773444928278106620000017679292940419351941_);fill:none;}
	.st14{fill:#FFFFFF;}
	
		.st15{clip-path:url(#BG_00000025426179044743192480000000439856956751411646_);fill:url(#SVGID_00000055675161527268058820000013934976115564380304_);}
	.st16{fill:#F4F4F6;}
	.st17{fill:none;stroke:#FFFFFF;stroke-width:0.5;stroke-miterlimit:10;}
	.st18{fill:none;stroke:#000000;stroke-miterlimit:10;}
	.st19{fill:none;stroke:#FFFFFF;stroke-miterlimit:10;}
	.st20{fill:#222546;}
	.st21{fill:#AC8566;}
	.st22{fill-rule:evenodd;clip-rule:evenodd;fill:#FFFFFF;}
	.st23{clip-path:url(#SVGID_00000041975846159667229800000001722250137968718481_);}
	.st24{clip-path:url(#SVGID_00000041975846159667229800000001722250137968718481_);fill:#BB1C35;}
</style>
<g>
	<circle class="st0" cx="15.76" cy="15.76" r="15.76"/>
	<g>
		<path d="M26.38,5.81c6.88,0.01,12.4,5.59,12.39,12.51c-0.01,6.84-5.65,12.43-12.53,12.4c-6.85-0.02-12.4-5.65-12.38-12.55
			C13.87,11.3,19.45,5.8,26.38,5.81z M17.66,18.15c-0.02,4.87,3.79,8.75,8.61,8.77c4.79,0.01,8.68-3.82,8.7-8.57
			c0.02-4.89-3.77-8.74-8.61-8.75C21.54,9.58,17.68,13.38,17.66,18.15z"/>
		<path d="M26.15,25.97c-4.29-0.11-7.68-3.61-7.59-7.83c0.08-4.3,3.62-7.72,7.91-7.63c4.24,0.09,7.68,3.65,7.59,7.84
			C33.96,22.68,30.43,26.08,26.15,25.97z M26.36,16.33c-1.09-0.03-1.94,0.79-1.96,1.89c-0.01,1.08,0.84,1.95,1.91,1.94
			c1.03,0,1.87-0.82,1.9-1.85C28.25,17.22,27.44,16.36,26.36,16.33z M21.16,13.77c-0.6,1.42-1.08,2.55-1.61,3.82
			c1.42,0,2.57,0,3.59,0c0.77-0.86,0.4-1.42-0.27-2C22.34,15.14,21.91,14.58,21.16,13.77z M33.07,17.6
			c-0.55-1.29-1.04-2.43-1.51-3.54c-1,0.92-1.82,1.68-2.64,2.43c0.17,0.4,0.32,0.75,0.47,1.11C30.53,17.6,31.65,17.6,33.07,17.6z
			 M25.67,25.01c0-1.45,0-2.56,0-3.91c-0.51,0.03-1.13-0.13-1.45,0.11c-0.77,0.57-1.4,1.32-2.3,2.2
			C23.23,23.98,24.36,24.46,25.67,25.01z M30.54,23.49c-0.96-1.03-1.72-1.84-2.48-2.65c-0.39,0.17-0.74,0.32-1.08,0.47
			c0,1.16,0,2.3,0,3.69C28.25,24.46,29.38,23.98,30.54,23.49z M22.17,12.94c-0.02,0.14-0.05,0.27-0.07,0.41
			c0.71,0.66,1.4,1.34,2.13,1.98c0.45,0.39,1.42,0.08,1.45-0.48c0.06-1.02,0.02-2.05,0.02-3.37C24.37,12.03,23.27,12.49,22.17,12.94
			z M26.91,11.49c0,1.3-0.03,2.28,0.01,3.25c0.03,0.66,0.97,1.02,1.47,0.58c0.73-0.64,1.42-1.33,2.38-2.23
			C29.34,12.49,28.22,12.03,26.91,11.49z M21.01,22.39c0.15,0.02,0.3,0.05,0.45,0.07c0.63-0.7,1.27-1.38,1.9-2.09
			c0.43-0.49,0.15-1.49-0.46-1.52c-1.02-0.06-2.06-0.02-3.38-0.02C20.09,20.19,20.55,21.29,21.01,22.39z M33.09,18.83
			c-1.32,0-2.32-0.03-3.32,0.01c-0.57,0.03-0.97,0.99-0.6,1.41c0.66,0.75,1.38,1.45,2.31,2.42C32.06,21.29,32.53,20.17,33.09,18.83z
			"/>
	</g>
</g>
</svg>
